<?xml version="1.0" standalone="no"?><svg xmlns:xlink="http://www.w3.org/1999/xlink" xmlns="http://www.w3.org/2000/svg" viewBox="0 0 1000 500.00000000000006" preserveAspectRatio="xMaxYMax slice"><g transform="scale(0.7587253414264037)"><rect x="0" y="0" width="1318" height="659" fill="#ffffff"/><rect x="0" y="0" width="329.5" height="329.5" fill="#ffffff"/><rect x="0" y="0" width="164.75" height="164.75" fill="#e3e3e3"/><path d="M 0 0 A 164.75 164.75 0 0 0 164.75 164.75 L 164.75 0" fill="#303030"/><rect x="164.75" y="0" width="164.75" height="164.75" fill="#424242"/><path d="M 164.75 164.75 A 164.75 164.75 0 0 0 329.5 0 L 164.75 0" fill="#27292f"/><rect x="0" y="164.75" width="164.75" height="164.75" fill="#e3e3e3"/><path d="M 0 329.5 A 164.75 164.75 0 0 1  164.75 164.75 L 164.75 329.5" fill="#303030"/><rect x="164.75" y="164.75" width="164.75" height="164.75" fill="#27292f"/><path d="M 164.75 164.75 A 164.75 164.75 0 0 1 329.5 329.5 L 164.75 329.5" fill="#424242"/><rect x="329.5" y="0" width="329.5" height="329.5" fill="#ffffff"/><rect x="329.5" y="0" width="164.75" height="164.75" fill="#e3e3e3"/><circle cx="411.875" cy="82.375" r="82.375" fill="#e3e3e3"/><rect x="494.25" y="0" width="164.75" height="164.75" fill="#27292f"/><rect x="494.25" y="0" width="164.75" height="164.75" fill="#27292f"/><rect x="329.5" y="164.75" width="164.75" height="164.75" fill="#424242"/><circle cx="411.875" cy="247.125" r="82.375" fill="#e3e3e3"/><rect x="494.25" y="164.75" width="164.75" height="164.75" fill="#303030"/><rect x="494.25" y="164.75" width="164.75" height="164.75" fill="#27292f"/><rect x="659" y="0" width="329.5" height="329.5" fill="#303030"/><polygon points="659,0 988.5,0 659,329.5" fill="#27292f"/><rect x="988.5" y="0" width="329.5" height="329.5" fill="#ffffff"/><rect x="988.5" y="0" width="164.75" height="164.75" fill="#e3e3e3"/><polygon points="1153.25,0 1153.25,164.75 988.5,164.75" fill="#303030"/><rect x="1153.25" y="0" width="164.75" height="164.75" fill="#424242"/><polygon points="1153.25,0 1318,164.75 1153.25,164.75" fill="#27292f"/><rect x="988.5" y="164.75" width="164.75" height="164.75" fill="#424242"/><polygon points="988.5,164.75 1153.25,164.75 1153.25,329.5" fill="#303030"/><rect x="1153.25" y="164.75" width="164.75" height="164.75" fill="#e3e3e3"/><polygon points="1153.25,164.75 1318,164.75 1153.25,329.5" fill="#424242"/><rect x="0" y="329.5" width="329.5" height="329.5" fill="#424242"/><path d="M 0 659 A 329.5 329.5 0 0 1  329.5 329.5 L 0 659 A 329.5 329.5 0 0 0 329.5 329.5" fill="#27292f"/><rect x="329.5" y="329.5" width="329.5" height="329.5" fill="#ffffff"/><rect x="329.5" y="329.5" width="164.75" height="164.75" fill="#303030"/><path d="M 329.5 494.25 A 164.75 164.75 0 0 1 494.25 329.5 L 494.25 370.6875 A 123.5625 123.5625 0 0 0 370.6875 494.25" fill="#303030"/><rect x="494.25" y="329.5" width="164.75" height="164.75" fill="#e3e3e3"/><path d="M 494.25 329.5 A 164.75 164.75 0 0 1 659 494.25 L 617.8125 494.25 A 123.5625 123.5625 0 0 0 494.25 370.6875" fill="#303030"/><rect x="329.5" y="494.25" width="164.75" height="164.75" fill="#424242"/><path d="M 329.5 494.25 A 164.75 164.75 0 0 0 494.25 659 L 494.25 617.8125 A 123.5625 123.5625 0 0 1 370.6875 494.25" fill="#303030"/><rect x="494.25" y="494.25" width="164.75" height="164.75" fill="#27292f"/><path d="M 494.25 659 A 164.75 164.75 0 0 0 659 494.25 L 617.8125 494.25 A 123.5625 123.5625 0 0 1 494.25 617.8125" fill="#27292f"/><rect x="659" y="329.5" width="329.5" height="329.5" fill="#ffffff"/><rect x="659" y="329.5" width="164.75" height="164.75" fill="#424242"/><polygon points="823.75,329.5 823.75,494.25 659,494.25" fill="#424242"/><rect x="823.75" y="329.5" width="164.75" height="164.75" fill="#303030"/><polygon points="823.75,329.5 988.5,329.5 823.75,494.25" fill="#27292f"/><rect x="659" y="494.25" width="164.75" height="164.75" fill="#303030"/><polygon points="659,494.25 823.75,494.25 823.75,659" fill="#303030"/><rect x="823.75" y="494.25" width="164.75" height="164.75" fill="#303030"/><polygon points="823.75,494.25 988.5,659 823.75,659" fill="#424242"/><rect x="988.5" y="329.5" width="329.5" height="329.5" fill="#27292f"/><polygon points="988.5,329.5 1318,329.5 1318,659" fill="#27292f"/></g></svg>