<?xml version="1.0" standalone="no"?><svg xmlns:xlink="http://www.w3.org/1999/xlink" xmlns="http://www.w3.org/2000/svg" viewBox="0 0 1000 1000.0000000000001" preserveAspectRatio="xMaxYMax slice"><g transform="scale(1.5174506828528074)"><rect x="0" y="0" width="659" height="659" fill="#ffffff"/><rect x="0" y="0" width="329.5" height="329.5" fill="#303030"/><rect x="0" y="0" width="329.5" height="329.5" fill="#e3e3e3"/><rect x="329.5" y="0" width="329.5" height="329.5" fill="#27292f"/><polygon points="329.5,0 659,0 659,329.5" fill="#27292f"/><rect x="0" y="329.5" width="329.5" height="329.5" fill="#ffffff"/><rect x="0" y="329.5" width="164.75" height="164.75" fill="#e3e3e3"/><path d="M 0 494.25 A 164.75 164.75 0 0 0 164.75 329.5 L 0 329.5" fill="#27292f"/><rect x="164.75" y="329.5" width="164.75" height="164.75" fill="#303030"/><path d="M 164.75 329.5 A 164.75 164.75 0 0 0 329.5 494.25 L 329.5 329.5" fill="#27292f"/><rect x="0" y="494.25" width="164.75" height="164.75" fill="#303030"/><path d="M 0 494.25 A 164.75 164.75 0 0 1 164.75 659 L 0 659" fill="#424242"/><rect x="164.75" y="494.25" width="164.75" height="164.75" fill="#e3e3e3"/><path d="M 164.75 659 A 164.75 164.75 0 0 1  329.5 494.25 L 329.5 659" fill="#27292f"/><rect x="329.5" y="329.5" width="329.5" height="329.5" fill="#424242"/><rect x="329.5" y="329.5" width="329.5" height="329.5" fill="#27292f"/></g></svg>