<?xml version="1.0" standalone="no"?><svg xmlns:xlink="http://www.w3.org/1999/xlink" xmlns="http://www.w3.org/2000/svg" viewBox="0 0 1000 666.6666666666667" preserveAspectRatio="xMaxYMax slice"><g transform="scale(1.0116337885685383)"><rect x="0" y="0" width="988.5" height="659" fill="#ffffff"/><polygon points="0,0 164.75,164.75 0,164.75" fill="#fafafa"/><polygon points="164.75,0 329.5,0 164.75,164.75" fill="#eaeaea"/><polygon points="494.25,0 494.25,164.75 329.5,164.75" fill="#eeeeee"/><rect x="494.25" y="0" width="164.75" height="164.75" fill="#ffffff"/><polygon points="494.25,0 576.63,0 576.63,82.38" fill="#f6f6f6"/><polygon points="576.63,0 659.01,0 576.63,82.38" fill="#a3a4a7"/><polygon points="494.25,82.38 576.63,82.38 494.25,164.76" fill="#f3f3f3"/><polygon points="576.63,82.38 659.01,82.38 659.01,164.76" fill="#ececec"/><polygon points="659,0 823.75,0 823.75,164.75" fill="#ededed"/><rect x="823.75" y="0" width="164.75" height="164.75" fill="#ffffff"/><polygon points="823.75,0 906.13,82.38 823.75,82.38" fill="#f9f9f9"/><polygon points="906.13,0 988.51,0 988.51,82.38" fill="#2d2f35"/><polygon points="823.75,82.38 906.13,82.38 823.75,164.76" fill="#f5f5f5"/><polygon points="906.13,82.38 988.51,82.38 906.13,164.76" fill="#f8f8f8"/><polygon points="0,164.75 164.75,164.75 0,329.5" fill="#cacacc"/><rect x="164.75" y="164.75" width="164.75" height="164.75" fill="#ffffff"/><polygon points="164.75,164.75 247.13,164.75 247.13,247.13" fill="#fdfdfd"/><polygon points="329.51,164.75 329.51,247.13 247.13,247.13" fill="#b6b7b9"/><polygon points="247.13,247.13 247.13,329.51 164.75,329.51" fill="#fefefe"/><polygon points="247.13,247.13 329.51,329.51 247.13,329.51" fill="#7b7c80"/><polygon points="329.5,164.75 494.25,164.75 329.5,329.5" fill="#f7f7f7"/><rect x="494.25" y="164.75" width="164.75" height="164.75" fill="#ffffff"/><polygon points="494.25,164.75 576.63,247.13 494.25,247.13" fill="#bcbcbe"/><polygon points="576.63,164.75 659.01,164.75 576.63,247.13" fill="#f7f7f7"/><polygon points="494.25,247.13 576.63,247.13 494.25,329.51" fill="#b3b4b6"/><polygon points="576.63,247.13 659.01,247.13 576.63,329.51" fill="#efefef"/><polygon points="823.75,164.75 823.75,329.5 659,329.5" fill="#f3f3f3"/><rect x="823.75" y="164.75" width="164.75" height="164.75" fill="#ffffff"/><polygon points="823.75,164.75 906.13,247.13 823.75,247.13" fill="#dededf"/><polygon points="906.13,164.75 988.51,164.75 906.13,247.13" fill="#848588"/><polygon points="823.75,247.13 906.13,247.13 906.13,329.51" fill="#fcfcfc"/><polygon points="906.13,247.13 988.51,329.51 906.13,329.51" fill="#8a8c8f"/><rect x="0" y="329.5" width="164.75" height="164.75" fill="#ffffff"/><polygon points="0,329.5 82.38,329.5 82.38,411.88" fill="#808184"/><polygon points="82.38,329.5 164.76,411.88 82.38,411.88" fill="#f2f2f2"/><polygon points="0,411.88 82.38,411.88 82.38,494.26" fill="#fcfcfc"/><polygon points="82.38,411.88 164.76,411.88 82.38,494.26" fill="#b9babc"/><polygon points="164.75,329.5 329.5,494.25 164.75,494.25" fill="#d0d1d2"/><rect x="329.5" y="329.5" width="164.75" height="164.75" fill="#ffffff"/><polygon points="411.88,329.5 411.88,411.88 329.5,411.88" fill="#8e8f92"/><polygon points="411.88,329.5 494.26,329.5 411.88,411.88" fill="#fefefe"/><polygon points="329.5,411.88 411.88,494.26 329.5,494.26" fill="#55575b"/><polygon points="411.88,411.88 494.26,411.88 411.88,494.26" fill="#f9f9f9"/><polygon points="494.25,329.5 659,329.5 494.25,494.25" fill="#f5f5f5"/><polygon points="659,329.5 823.75,494.25 659,494.25" fill="#dbdbdc"/><polygon points="988.5,329.5 988.5,494.25 823.75,494.25" fill="#c8c9ca"/><polygon points="0,494.25 164.75,659 0,659" fill="#ececec"/><polygon points="329.5,494.25 329.5,659 164.75,659" fill="#f2f2f2"/><polygon points="329.5,494.25 494.25,659 329.5,659" fill="#e5e5e6"/><polygon points="659,494.25 659,659 494.25,659" fill="#fafafa"/><polygon points="823.75,494.25 823.75,659 659,659" fill="#77787c"/><polygon points="823.75,494.25 988.5,494.25 823.75,659" fill="#2e3036"/></g></svg>